<?xml version="1.0" encoding="UTF-8"?>
<svg width="414px" height="574px" viewBox="0 0 414 574" version="1.1" xmlns="http://www.w3.org/2000/svg" xmlns:xlink="http://www.w3.org/1999/xlink">
    <title>home-mobile</title>
    <defs>
        <rect id="path-1" x="0" y="0" width="414" height="574"/>
        <polygon id="path-3" points="0 397 139 397 139 0 0 0"/>
    </defs>
    <g id="Assets" stroke="none" stroke-width="1" fill="none" fill-rule="evenodd">
        <g id="home-mobile">
            <mask id="mask-2" fill="white">
                <use xlink:href="#path-1"/>
            </mask>
            <use id="Mask" fill="#103D7C" xlink:href="#path-1"/>
            <g id="Group-55" mask="url(#mask-2)">
                <g transform="translate(326.000000, 200.000000)">
                    <path d="M16.4719256,116 C16.4719256,116 8.17845399,127.662726 8.01365673,137.015491 C7.85084498,146.368256 9.16525202,149.157642 10.8092536,148.993211 C12.4552406,148.830761 34,127.97772 34,127.97772 L16.4719256,116 Z" id="Fill-1" stroke="none" fill="#0D3265" fill-rule="evenodd"/>
                    <mask id="mask-4" fill="white">
                        <use xlink:href="#path-3"/>
                    </mask>
                    <g id="Clip-4" stroke="none" fill="none"/>
                    <polygon id="Fill-3" stroke="none" fill="#0D3265" fill-rule="evenodd" mask="url(#mask-4)" points="9 29 19 29 19 17 9 17"/>
                    <polygon id="Fill-7" stroke="none" fill="#0D3265" fill-rule="evenodd" mask="url(#mask-4)" points="40 132.857343 46.0648447 125 51 129.214186 49.0729927 144"/>
                    <polygon id="Fill-8" stroke="none" fill="#0D3265" fill-rule="evenodd" mask="url(#mask-4)" points="76.674588 124 82 155.254875 72.3356461 156 71 135.110242 71 125.296397"/>
                    <polygon id="Fill-9" stroke="none" fill="#0D3265" fill-rule="evenodd" mask="url(#mask-4)" points="58 98 59.5007849 79 61 98"/>
                    <polygon id="Fill-10" stroke="none" fill="#0D3265" fill-rule="evenodd" mask="url(#mask-4)" points="76 112 95 113.500785 76 115"/>
                    <polygon id="Fill-11" stroke="none" fill="#0D3265" fill-rule="evenodd" mask="url(#mask-4)" points="43 112 24 113.500785 43 115"/>
                    <polygon id="Fill-12" stroke="none" fill="#0D3265" fill-rule="evenodd" mask="url(#mask-4)" points="67 99.5515205 82 87 69.8121236 102"/>
                    <polygon id="Fill-13" stroke="none" fill="#0D3265" fill-rule="evenodd" mask="url(#mask-4)" points="75 106.434109 93 100 76.4627368 110"/>
                    <polygon id="Fill-14" stroke="none" fill="#0D3265" fill-rule="evenodd" mask="url(#mask-4)" points="44 106.434109 26 100 42.5372632 110"/>
                    <polygon id="Fill-15" stroke="none" fill="#0D3265" fill-rule="evenodd" mask="url(#mask-4)" points="50 99.5515205 35 87 47.1878764 102"/>
                    <path d="M15.5349512,52 C15.5349512,52 22.189816,57.4686063 22.4755243,61.6413992 C22.7612326,65.8161466 22.5474373,66.1034536 22.6912632,68.2611882 C22.8331455,70.4208773 28.0555818,92.7976013 28.6289419,96.0361577 C29.2023021,99.2727596 29.1303891,106.901055 29.9175446,109.275736 C30.7047,111.650416 37,134.099456 37,134.099456 L20.042145,140 C20.042145,140 18.3259518,130.718223 17.2511444,124.385741 C16.1782807,118.053259 14.9615911,109.778034 14.4620875,106.901055 C13.9606403,104.022121 12.1006212,98.8427762 11.3853787,92.7976013 C10.6701362,86.7543809 11.1696398,65.3118934 11.1696398,65.3118934 L15.5349512,52 Z" id="Fill-16" stroke="none" fill="#0D3265" fill-rule="evenodd" mask="url(#mask-4)"/>
                    <path d="M20.4171351,73.7532437 C21.5348905,75.3487304 25.6026362,103.761111 25.7057569,109.507176 C25.8070362,115.25324 22.553208,131 22.553208,131 L30,112.919744 C29.4530917,110.946582 29.0387672,109.482126 28.8748789,108.969566 C28.1290948,106.63029 28.1972281,99.1095353 27.6540027,95.916635 C27.1126187,92.7256616 22.1628223,70.66247 22.028397,68.5351544 C21.8976546,66.4868423 22.0799574,66.1457782 21.85346,62.4538065 C23.9766428,60.9315427 21.6380112,49.7053283 21.0782128,50.0059273 C20.5239387,50.3065262 12.8966854,60.4575213 12.5155069,61.1743341 L11.5192867,64.3402576 C11.2854235,65.5773379 11.1454739,66.9126908 11.0644505,68.1594057 C11.0441946,69.327117 11.0202559,70.8281848 11,72.5219442 C11.3351425,75.1695272 13.3920333,76.4123882 15.4341927,76.4123882 C17.6715449,76.4123882 19.2993797,72.1558301 20.4171351,73.7532437" id="Fill-17" stroke="none" fill="#0D3265" fill-rule="evenodd" mask="url(#mask-4)"/>
                    <polygon id="Fill-18" stroke="none" fill="#0D3265" fill-rule="evenodd" mask="url(#mask-4)" points="17.8624953 63 9.13750468 63 8 38 19 38"/>
                    <polygon id="Fill-19" stroke="none" fill="#0D3265" fill-rule="evenodd" mask="url(#mask-4)" points="9 65 19 65 19 63 9 63"/>
                    <polygon id="Fill-20" stroke="none" fill="#0D3265" fill-rule="evenodd" mask="url(#mask-4)" points="15.9898266 70 11.0101734 70 9 65 18 65"/>
                    <path d="M14.1216557,71 L12.8783443,71 C12.3937405,71 12,70.6 12,70.1111111 L12,69.8888889 C12,69.4 12.3937405,69 12.8783443,69 L14.1216557,69 C14.6047451,69 15,69.4 15,69.8888889 L15,70.1111111 C15,70.6 14.6047451,71 14.1216557,71" id="Fill-21" stroke="none" fill="#0D3265" fill-rule="evenodd" mask="url(#mask-4)"/>
                    <path d="M19.6326475,38 L8.36927298,38 C7.61646091,38 7,37.4748359 7,36.8315098 L7,36.1684902 C7,35.5251641 7.61646091,35 8.36927298,35 L19.6326475,35 C20.3854595,35 21,35.5251641 21,36.1684902 L21,36.8315098 C21,37.4748359 20.3854595,38 19.6326475,38" id="Fill-22" stroke="none" fill="#0D3265" fill-rule="evenodd" mask="url(#mask-4)"/>
                    <polygon id="Fill-23" stroke="none" fill="#0D3265" fill-rule="evenodd" mask="url(#mask-4)" points="18.7256809 39 7.1848249 39 0 33 26 33"/>
                    <polygon id="Fill-24" stroke="none" fill="#0D3265" fill-rule="evenodd" mask="url(#mask-4)" points="0 32 27 32 27 30 0 30"/>
                    <polygon id="Fill-25" stroke="none" fill="#0D3265" fill-rule="evenodd" mask="url(#mask-4)" points="27 23 13.5010039 23 0 23 1.10835131 26.5 0 30 13.5010039 30 27 30 25.8916487 26.5"/>
                    <path d="M8.98840601,17 C8.98840601,17 7,13.6133838 7,11.101116 C7,8.58884814 14.1987302,5.69479472 14.7901934,3.01833929 C15.3816567,0.34188387 13.4477275,-0.641263466 13.7415135,-0.916228214 C14.0372452,-1.18723663 20.3818557,-1.12986989 22.2574168,4.5474598 C24.675801,11.8646872 20.5919808,17 18.4965667,17 L8.98840601,17 Z" id="Fill-26" stroke="none" fill="#0D3265" fill-rule="evenodd" mask="url(#mask-4)"/>
                    <path d="M45.8912933,120.359879 C45.8912933,120.359879 43,117.591164 43,110.777349 C43,103.963534 50.7599324,98 59.7173852,98 C70.3686109,98 77,105.09917 77,111.770308 C77,118.302624 74.8118907,121 74.8118907,121 C74.8118907,121 45.9947591,120.463995 45.8912933,120.359879" id="Fill-27" stroke="none" fill="#0D3265" fill-rule="evenodd" mask="url(#mask-4)"/>
                    <path d="M45.8924812,122.416869 C45.8924812,122.416869 43,119.888149 43,113.666263 C43,107.444377 50.7600744,102 59.7182648,102 C70.3688434,102 77,108.481661 77,114.574567 C77,120.536678 74.8133395,123 74.8133395,123 C74.8133395,123 45.997267,122.511332 45.8924812,122.416869" id="Fill-28" stroke="none" fill="#0D3265" fill-rule="evenodd" mask="url(#mask-4)"/>
                    <path d="M49,113.230199 C49,113.230199 49.2953565,129.315389 50.8484894,132.874624 C52.4016223,136.433859 49,143.337731 49,143.337731 L61.9454532,158 L76,154.156568 C76,154.156568 71.4872749,150.527733 71.4129335,147.608426 C71.3385921,144.689119 71.5616163,135.865464 71.9313142,135.15207 C72.3010121,134.44061 73.4844471,126.398015 73.0404078,122.12732 C72.5963685,117.856624 71.0432356,111.380016 71.0432356,111.380016 C71.0432356,111.380016 66.0864712,107.608116 60.4666617,108.033445 C54.8428338,108.462642 49,113.230199 49,113.230199" id="Fill-29" stroke="none" fill="#0D3265" fill-rule="evenodd" mask="url(#mask-4)"/>
                    <path d="M35.0176008,126 C35.0176008,126 44.489088,135.0876 46.7507029,138.168308 C49.0103681,141.245104 56.6004257,152.586022 61.2835282,154.69264 C65.9685804,156.799257 72.4258809,152.586022 75.9801257,153.235416 C79.5324208,153.882854 87.6079457,156.314168 91.1602408,163.766548 C94.7125359,171.218927 110.216296,299.372474 108.923666,300.992046 C107.632986,302.611618 104.078741,304.395495 104.078741,306.500157 C104.078741,308.606774 105.854889,345.545932 105.209548,346.195325 C104.564208,346.842763 101.171786,347.814898 101.171786,348.462335 C101.171786,349.111729 104.724081,382 103.271578,382 L14.2906802,382 C14.2906802,382 21.5570929,366.608195 22.5260779,361.909871 C23.4950629,357.211547 20.7499303,334.692059 21.7189153,322.216658 C22.6879003,309.741257 25.7566778,299.372474 25.9185002,294.187104 C25.9789399,292.217407 25.643597,284.250598 25.2848581,274.589888 C24.9846092,266.509631 19.736103,263.23919 19.6210726,255.303677 C19.5099415,247.771102 24.5108399,235.444357 24.9495152,232.459493 C25.4213349,229.253601 16.3222343,232.389077 15.9050053,224.359676 C15.2596652,211.884275 25.9048525,200.136508 26.1290644,194.722285 C26.6574244,181.988692 18.0320931,185.284561 17.0358128,180.290879 C16.1311668,175.750991 19.6893109,170.121609 19.9427678,162.794413 C20.276161,153.123924 13,145.133643 13,145.133643 L35.0176008,126 Z" id="Fill-30" stroke="none" fill="#0D3265" fill-rule="evenodd" mask="url(#mask-4)"/>
                    <path d="M44.0104012,121.220123 C44.1737305,118.577153 45.2402907,117.607498 45.2402907,117.607498 C45.2402907,117.607498 45.6771475,113.859046 49.2999101,110.872736 C53.5956683,107.328025 58.788754,108.371252 59.5857224,108.371252 C60.3826908,108.371252 66.8312477,106.35837 71.9023283,111.706563 C74.4290134,114.370285 74.9445831,118.373412 75.0882342,118.85824 C75.2338531,119.344954 77.2626789,122.053951 76.9714411,124.206434 C76.6841389,126.358917 72.0597542,129 72.0597542,129 L49.5616306,128.724573 C49.5616306,128.724573 43.7211311,125.874089 44.0104012,121.220123" id="Fill-31" stroke="none" fill="#0D3265" fill-rule="evenodd" mask="url(#mask-4)"/>
                    <polygon id="Fill-35" stroke="none" fill="#0D3265" fill-rule="evenodd" mask="url(#mask-4)" points="75.9423999 181 69 314 90 302.263399"/>
                    <path d="M103.241415,381 C104.703526,381 101.130565,348.281252 101.130565,347.635206 C101.130565,346.991106 104.540851,346.023982 105.189589,345.379881 C105.840287,344.733835 104.054787,307.987027 104.054787,305.889322 C104.054787,303.795509 107.625788,302.022774 108.923264,300.409603 C110.2227,298.798379 94.637303,171.305403 91.0663027,163.891437 C90.7448735,163.220094 90.3822857,162.591561 89.9922588,162 L98.8158829,295.356042 C98.8158829,295.356042 68.0782335,311.474121 68.2938263,314.482518 C68.511379,317.492861 77.6035141,319.425162 77.6035141,323.079605 C77.6035141,326.734048 45.3488755,339.627733 43.1851081,342.852128 C41.0193807,346.076522 58.5549128,340.057782 59.4212037,345.000427 C60.2855348,349.945017 53.5766797,380.462925 53.5766797,381 L103.241415,381 Z" id="Fill-36" stroke="none" fill="#0D3265" fill-rule="evenodd" mask="url(#mask-4)"/>
                    <path d="M24.0837815,306.034311 C24.0837815,306.034311 32.9269648,305.230968 37.7503429,297.998947 C42.57178,290.764985 50.6113904,279.353256 53.9867846,276.461999 C56.0888845,274.661271 61.9254631,265.952574 66.1490731,259.667488 C68.7150714,255.854523 73.7733101,206.939902 73.9557639,207 C74.4371312,207.161112 70.8695783,277.424458 69.0993888,277.585514 C67.3311404,277.746571 60.2581465,272.76352 57.845487,278.388857 C55.4347685,284.014193 43.21425,317.607097 36.944829,323.232434 C30.6754081,328.85777 23.1191059,320.500294 24.0837815,306.034311" id="Fill-37" stroke="none" fill="#0D3265" fill-rule="evenodd" mask="url(#mask-4)"/>
                    <path d="M31.5839785,112 C31.5839785,112 23.1365763,133.543455 20.1197868,136.302056 C17.1029973,139.060658 8.86310951,146.161793 10.1316881,149.500841 C13.7279518,158.961151 30.3584689,148.208116 34.6144718,129.608218 C36.8305689,119.93147 36.7718384,120.474533 31.5839785,112" id="Fill-38" stroke="none" fill="#0D3265" fill-rule="evenodd" mask="url(#mask-4)"/>
                    <path d="M19,38.9886845 L9.48641915,38.8719961 C9.48641915,38.8719961 9.30163394,37.7362293 8.8310984,38.0571223 C8.36056287,38.3799602 7.46330684,39.9669219 7.78144221,41.1182472 C8.09957757,42.2695724 7.08611641,46.4081198 7.04611137,46.686227 C6.98134129,47.1199188 7.25566161,50.3366281 7.25566161,50.3366281 C7.25566161,50.3366281 9.67501437,50.9453524 9.32449397,51.8769145 C8.97397357,52.8065319 7.18517653,53.7750453 7.00801132,54.1309448 C6.82894112,54.4887892 9.71120941,60.7180031 9.71120941,60.7180031 C9.71120941,60.7180031 9.85027457,59.2496745 9.92075965,58.0341707 C9.99124473,56.8167221 12.4467925,54.9555426 14.4089448,55.6712313 C16.373002,56.3869199 18.2418091,61 18.2418091,61 L19,38.9886845 Z" id="Fill-39" stroke="none" fill="#0D3265" fill-rule="evenodd" mask="url(#mask-4)"/>
                    <path d="M57.5566898,128.102024 C56.9405637,128.225889 57.9782497,126.890474 59.0311958,127.033692 C60.0841419,127.174975 61.5605554,126.962083 61.3488217,126.106643 C61.1370879,125.251203 60.5762797,119.266994 61.6998037,118.411554 C62.8233277,117.556114 68.1605435,118.24511 67.9507172,117.829003 C67.7389835,117.41483 60.5934473,112.212517 60.1985925,112.212517 C59.8037378,112.212517 50.9567017,118.552837 51.5880879,119.052166 C52.219474,119.551495 57.6978456,118.055443 57.766516,119.907606 C57.8370939,121.759769 56.9958816,122.615209 54.6782557,122.5436 C52.3606298,122.471991 50.1650847,122.758427 49.7625999,124.395763 C49.3582075,126.033098 49.8999406,130.439969 49.8999406,130.439969 L49.2780921,134.088169 C49.2780921,134.088169 45.0739378,127.267874 45.0014524,123.960301 C44.9308745,120.652729 47.444974,117.484504 49.8312702,115.70395 C52.219474,113.923397 59.5233336,111.072575 60.0841419,111.000966 C60.6468576,110.929357 73.287933,114.860123 73.7781634,116.03103 C74.2703012,117.200003 74.2703012,117.627723 74.3408791,118.196726 C74.4095495,118.767664 76.2731877,121.045612 76.1854422,122.97132 C76.0957892,124.895092 75.5216284,125.100243 75.5216284,125.100243 L70.4781693,134.941674 C70.4781693,134.941674 69.5434889,146.563658 70.0508869,147.982295 C70.5563773,149.400932 81,155 81,155 C81,155 73.6045798,153.941345 72.3837728,153.687809 C69.4385758,153.076228 63.6740776,151.133102 58.6096359,144.988255 C51.4469321,136.294508 50.9567017,134.941674 51.868492,134.870064 C52.7821898,134.798455 58.5237979,136.294508 60.8852965,135.938397 C63.2448876,135.582286 69.9154536,127.041434 68.6526813,125.005409 C67.3880015,122.97132 63.0350614,123.257757 63.0350614,124.895092 C63.0350614,126.534363 64.1585854,129.31164 64.1585854,130.523191 C64.1585854,131.734741 61.0684176,132.805009 60.7861059,132.375354 C60.5057018,131.949569 61.0130997,130.503837 60.6373201,130.379972 C59.5481313,130.021926 56.7135699,130.69544 56.7135699,130.69544 C56.7135699,130.69544 58.3292318,129.598077 59.1017737,129.454858 C59.8743157,129.31164 58.6096359,127.887197 57.5566898,128.102024" id="Fill-40" stroke="none" fill="#0D3265" fill-rule="evenodd" mask="url(#mask-4)"/>
                    <path d="M19.6952723,59.6595102 C19.761855,61.492274 17.307479,55.4424652 17.7322307,53.0262935 C18.1546864,50.6082459 13.7579323,46.32742 14.0104873,44.1175983 C14.2653384,41.9077767 15.9551614,41.838368 16.5475178,42.1141268 C17.1398742,42.3898855 19.8445094,44.5321744 20.6044706,45.8434353 C21.3667277,47.1546961 22.8246592,49.2425836 22.9945599,50.0023271 C23.1621646,50.7620705 19.3990941,51.4917994 19.6952723,59.6595102" id="Fill-41" stroke="none" fill="#0D3265" fill-rule="evenodd" mask="url(#mask-4)"/>
                    <path d="M6.40173665,47.9992052 C6.40173665,47.9992052 5.1286206,47.4019968 5.01152798,46.2142652 C4.89443537,45.0243053 5.6778914,43.506772 6.97229703,43.1368594 C8.26457369,42.7669467 13.8679875,43.1368594 13.9872091,44.3691587 C14.1043017,45.5992297 13.4230356,46.7758194 11.7134834,46.6643999 C7.24480347,46.3769377 6.86797815,48.0415446 6.40173665,47.9992052" id="Fill-47" stroke="none" fill="#0D3265" fill-rule="evenodd" mask="url(#mask-4)"/>
                    <path d="M5.67510044,47.0990234 C6.14859853,46.7967246 10.2624726,47.2604451 11.3915834,47.5040451 C12.5206943,47.7476451 14.4357736,48.1027728 14.742493,48.3962667 C15.1680662,48.8012884 15.0607144,49.8270499 14.4606945,49.9356426 C13.8625917,50.0427679 6.59334168,50.0163535 6.09875663,49.8549318 C5.60417158,49.6920426 4.15683936,48.0719559 5.67510044,47.0990234" id="Fill-48" stroke="none" fill="#0D3265" fill-rule="evenodd" mask="url(#mask-4)"/>
                    <path d="M5.78451677,50.0878036 C6.1941325,49.7808638 9.81020254,50.3646822 10.8915,50.5244808 C11.9749996,50.6842793 13.3558011,50.9753975 13.6751251,51.2301259 C14.1155722,51.5797841 14.1309878,52.5369932 13.580429,52.6714771 C13.0320725,52.805961 6.05979616,53.0923327 5.57750667,52.9705061 C5.09741942,52.8502616 4.47198465,51.076656 5.78451677,50.0878036" id="Fill-49" stroke="none" fill="#0D3265" fill-rule="evenodd" mask="url(#mask-4)"/>
                    <path d="M17.3287307,222.014921 C16.7413888,223.79708 17.0173213,226.166258 17.5593314,228.36662 C20.0052753,231.142492 24.8695699,230.233188 25.3130327,232 C25.340626,230.728125 25.7683212,226.766706 29.0834523,217.090483 C31.2337543,210.809762 44.6007096,200.475541 53.1447602,192.186294 C61.4660939,184.113823 65,178 65,178 C65,178 61.9923365,181.748481 49.5852319,190.645849 C37.1781272,199.545135 18.7990564,217.566237 17.3287307,222.014921" id="Fill-51" stroke="none" fill="#0D3265" fill-rule="evenodd" mask="url(#mask-4)"/>
                    <path d="M47.4432565,209.439216 C34.7495583,229.037255 21.0019481,261.219608 21,261.221569 C22.3266434,264.390196 24.1383591,267.14902 24.8416165,271 L25.1123998,270.943137 L64,182 C64,182 55.0485661,197.696078 47.4432565,209.439216" id="Fill-52" stroke="none" fill="#0D3265" fill-rule="evenodd" mask="url(#mask-4)"/>
                    <path d="M6.84299952,43 C6.84299952,43 5.8602526,40.9803518 6.0169224,39.4243663 C6.17501647,37.8662923 7.90550561,33.8875645 8.29860438,34.0024359 C8.69170315,34.1193959 9.1246815,36.1954355 8.96658743,37.2898467 C8.80991763,38.3863465 8.13338896,40.1177719 8.15190448,40.7485204 C8.17184427,41.383446 8.20602677,42.5384258 8.20602677,42.5384258 L6.84299952,43 Z" id="Fill-53" stroke="none" fill="#0D3265" fill-rule="evenodd" mask="url(#mask-4)"/>
                    <path d="M23.821959,161.565064 C24.1469789,166.826622 21.6114316,170.677982 23.2326155,170.992418 C24.8537995,171.30876 31.8554345,161.68131 34.6788008,150.47406 C36.8364635,141.909975 38.3871611,134.085291 39,130.868518 C36.9441508,128.892337 35.3307986,127.390669 35.3307986,127.390669 C35.3307986,127.390669 36.3371858,121.706053 34.8765539,119.44021 L34.6827167,119.005717 C34.6807587,119.005717 34.6807587,119.001906 34.6788008,119 C34.6768428,119.017151 30.8842905,136.368284 28.7951561,140.833271 C25.5332087,147.806121 19.4694325,150.134851 20.0372385,151.146762 C21.0338359,152.922847 23.496939,156.303507 23.821959,161.565064" id="Fill-54" stroke="none" fill="#0D3265" fill-rule="evenodd" mask="url(#mask-4)"/>
                </g>
            </g>
            <path d="M30.8590529,172 C32.170668,172 33.2373624,173.574369 33.2373624,175.521273 C33.2373624,176.862402 32.728185,178.03184 31.9805322,178.621418 C32.728185,179.622406 33.2373624,181.585507 33.2373624,183.849877 L33.2373624,183.849877 L33.2309171,184.222412 C33.0665624,197.494404 38.5933926,217.608096 44.2007889,226.05008 C49.8661928,234.569811 62.1251212,246.037433 52.0092494,244.631516 L52.0092494,244.631516 L52.0092494,264.340277 C54.6550381,268.823664 56.3984872,272.017753 57.7777778,274.619025 L57.7777778,274.619025 L57.7777778,275.358025 C61.2409304,281.835748 62.4870181,284.635085 69.9052852,294.398704 L69.9052852,294.398704 L69.9052852,311.869419 L78,316.050583 L78,375.725433 L74.8216674,375.725433 L74.8216674,566.333333 L57.7777778,566.333333 L57.7777778,565.209877 L8.34567901,565.209877 L8.34567901,566.333333 L-9.84256467,566.333333 L-9.84256467,375.76613 L-13,375.76613 L-13,316.104022 L-4.95352872,313.256637 L-4.95352872,294.456765 C3.2506534,283.612057 3.8654038,281.358148 8.34567901,273.111111 L8.34567901,273.111111 L8.34567901,272.312543 C9.52194318,270.155075 10.962464,267.586198 12.8734904,264.340277 L12.8734904,264.340277 L12.8734904,244.631516 C10.4210602,244.974897 8.99342996,245.01377 8.34567901,244.625037 L8.34567901,244.625037 L8.34567901,242.396301 C9.63151299,239.565029 13.6759281,234.028824 17.8814754,224.362331 C25.6319283,206.56484 28.6773246,197.338911 28.4904114,184.332553 C28.4871887,184.170581 28.4839661,184.011849 28.4839661,183.849877 C28.4839661,181.585507 28.9899208,179.622406 29.7375736,178.621418 C28.9899208,178.03184 28.4839661,176.862402 28.4839661,175.521273 C28.4839661,173.574369 29.5442151,172 30.8590529,172 Z M10.0472338,316.731763 C9.47360356,316.731763 8.90641864,316.770636 8.34567901,316.848383 L8.34567901,316.848383 L8.34567901,317.696352 C1.11672921,318.695206 -5.13376968,325.927174 -6.00278857,334.702825 C-6.93939783,344.159515 -1.27790064,351.826048 6.64626428,351.826048 C7.21917303,351.826048 7.78564461,351.787132 8.34567901,351.709299 L8.34567901,351.709299 L8.34567901,350.823644 C15.5837319,349.825896 21.8421018,342.601942 22.7154377,333.836014 C23.6532264,324.386563 17.9845999,316.731763 10.0472338,316.731763 Z M57.7777778,316.556833 C57.1751438,316.385143 56.5628419,316.297678 55.9473174,316.297678 C50.3109173,316.297678 46.5662078,323.751633 47.5781173,332.945167 C48.4804569,341.131236 52.8535815,347.937302 57.7777778,349.327022 L57.7777778,349.327022 L57.7777778,350.164862 C58.3862569,350.33678 59.0044459,350.427604 59.6258714,350.427604 C65.2834329,350.427604 69.0475886,342.963788 68.0280623,333.761334 C67.1218168,325.561191 62.732999,318.742877 57.7777778,317.351318 L57.7777778,317.351318 Z M8.3521524,324.790123 L9.02862163,333.399044 L19.5802469,329.066491 L9.1127757,334.809933 L9.34581773,338.271605 L7.46262626,338.271605 L7.67317621,335.570277 L4.65005612,337.32504 L3.85185185,335.65833 L7.71402918,333.982186 L8.34567901,324.790123 L8.34567901,324.890009 L8.3521524,324.790123 Z M55.6403904,323.666667 L57.7777778,331.330819 L57.7777778,330.687041 L58.1692084,332.054605 L65.6419753,327.037037 L58.5574041,333.50131 L59.5408332,337.043681 L58.0106952,337.148148 L57.7777778,335.723602 L57.7777778,336.512997 L57.5663163,335.131952 L55.454955,337.148148 L54.4074074,335.438127 L57.2344845,333.45776 L55.6403904,323.666667 Z M8.00275114,243.303556 L8.00275114,245.62237 C7.38934373,245.255 7.4500104,244.516889 8.00275114,243.303556 L8.00275114,243.303556 Z" id="Fill-255" fill="#0D3265" mask="url(#mask-2)"/>
            <g id="Group-28" mask="url(#mask-2)">
                <g transform="translate(39.000000, 410.000000)">
                    <g id="Group" transform="translate(0.000000, 14.183803)">
                        <path d="M57.8505936,73.3461683 C57.8505936,73.3461683 60.7334402,104.421852 54.3046002,121.349082 C52.5285334,126.026384 32.8014508,144.278594 29.7036955,150.392824 C29.7036955,150.392824 25.4653891,146.715391 26.0134063,145.841273 C28.8624815,141.306591 32.709347,127.288488 41.2872739,117.969157 C49.8667358,108.651359 39.5127421,84.5548227 39.5127421,84.5548227 L57.8505936,73.3461683" id="Fill-232" fill="#B78753"/>
                        <path d="M55.3975644,63.7507996 C63.5072973,61.6897199 72.4229378,49.1192807 72.4229378,49.1192807 L70.1403005,47.1394787 C67.7747699,49.92439 57.9442324,54.7213076 57.9442324,54.7213076 C57.9964245,52.1725617 57.9304168,49.8477129 57.7692353,47.7329592 C56.6778062,33.3530945 51.2528968,28.5624644 49.7715619,27.5113751 C49.5320923,27.3405386 49.3954717,27.2695356 49.3954717,27.2695356 C49.3954717,27.2695356 49.3893315,27.3739698 49.3816562,27.5717967 C49.3586302,27.9987346 49.3202537,28.8599715 49.2803421,30.0412584 C48.9794699,38.841486 48.6202654,65.4760337 55.3975644,63.7507996" id="Fill-233" fill="#E5B562"/>
                        <path d="M70.1403005,47.1394787 C70.1740719,46.7990325 69.9913995,42.3486952 71.461989,41.4454393 C72.6209609,40.7323426 74.306459,38.6988666 74.8636865,38.8016139 C75.4209141,38.9058947 76.952906,42.1677374 76.0594999,44.3346314 C75.1660938,46.4999919 72.4229378,49.1192807 72.4229378,49.1192807 L70.1403005,47.1394787" id="Fill-234" fill="#E5B562"/>
                        <path d="M45.9339068,162.294639 C45.9339068,162.294639 35.1547009,140.111962 36.6130099,126.343827 C36.9476534,123.17553 36.6820877,119.976563 35.7318843,116.937084 C34.7003225,113.647637 33.3863094,109.272444 32.2611089,104.999997 C31.5764712,102.402178 30.9071842,99.6678736 30.30851,96.9059655 C29.5072076,93.2147312 28.8348504,89.4759572 28.4219187,85.9564796 C27.7388161,80.1044855 28.9498718,74.6275824 30.339103,71.224654 L47.7867267,69.5997266 C47.7867267,69.5997266 49.3893315,84.5164842 49.8344995,99.332028 C49.8621306,100.25522 49.8851565,101.179945 49.9020422,102.10007 C50.0586185,110.192568 48.8459195,116.912547 48.0507574,122.796746 C47.8036124,124.629328 47.7391398,126.478779 47.8573395,128.322095 L50.0601536,162.774637 L45.9339068,162.294639 Z" id="Fill-235" fill="#E5B562"/>
                        <path d="M43.0142187,11.273625 C43.0142187,11.273625 38.6531074,14.983415 42.6519441,19.2538679 C42.6519441,19.2538679 39.3193243,19.5803589 38.1910537,18.6587005 C38.1910537,18.6587005 38.4136377,19.1080281 38.619336,19.3099955 C38.619336,19.3099955 34.8937404,19.4438737 33.3556082,18.2831362 C31.817476,17.1220919 32.8060559,-1.92065887 43.146234,0.208356706 C43.146234,0.208356706 51.9114385,-0.452599654 51.0947854,9.67858851 C50.2765974,19.8097767 53.5877262,19.8102367 53.5877262,19.8102367 C53.5877262,19.8102367 52.666689,20.2633982 52.221521,20.2633982 C52.221521,20.2633982 51.5721898,20.0157313 51.4447796,19.6570359 C51.4447796,19.6570359 51.5721898,20.2206124 51.7395115,20.4000368 C51.7395115,20.4000368 48.1674221,20.7377226 46.38368,19.3909665 C44.5999378,18.0440571 42.5061132,13.3636886 43.0142187,11.273625" id="Fill-236" fill="#FF7200"/>
                        <path d="M56.1512799,33.4901931 L32.2549687,33.4901931 C33.9650278,29.2117659 36.4134518,26.1172326 38.272412,25.7375277 C39.262527,25.4755989 40.944955,21.89754 40.9249992,16.1328044 L41.3701672,16.2208296 L48.8750857,17.704991 C48.8750857,17.704991 48.7046938,20.0657247 48.6985536,22.2882863 C48.6939484,24.1408044 48.7937274,26.0247601 49.2143344,26.2457434 C49.7546763,26.2935899 50.2458961,26.3926566 50.2458961,26.3926566 C50.2458961,26.3926566 54.3168807,29.2481108 56.1512799,33.4901931" id="Fill-237" fill="#E5B562"/>
                        <path d="M48.8750857,17.7051444 C48.8750857,17.7051444 48.7046938,20.0648046 48.6985536,22.2872129 C44.5001588,22.1689768 42.280459,18.3418708 41.3701672,16.2206763 L48.8750857,17.7051444" id="Fill-238" fill="#B78753"/>
                        <path d="M40.5949609,15.4043722 C40.5949609,15.4043722 38.3952169,11.9305941 37.8671556,8.9602777 C37.4895303,6.83923653 38.570214,-1.02093011 46.4773187,0.110823471 C46.4773187,0.110823471 48.7737716,0.336867479 50.9320689,1.79357849 C52.6498033,2.95186234 55.1273935,5.45260836 52.3566065,12.3119859 L51.6366624,14.6293203 L40.5949609,15.4043722" id="Fill-239" fill="#FF7200"/>
                        <path d="M50.2765974,19.8097767 C50.2765974,19.8097767 40.3416756,19.9735589 40.3355354,13.7907799 C40.3278601,7.60769415 39.0414781,3.4646786 45.3843545,3.09877561 C51.7287661,2.73256591 52.962956,5.09084594 53.4679914,7.15376588 C53.9730268,9.21699253 52.8616419,19.6078093 50.2765974,19.8097767" id="Fill-240" fill="#E5B562"/>
                        <path d="M49.9097175,2.94726172 C49.9097175,2.94726172 47.1895875,10.2010661 43.0142187,11.273625 C38.8388499,12.3460305 37.0290117,11.2288455 37.0290117,11.2288455 C37.0290117,11.2288455 40.2311512,8.68715397 40.8958331,4.25107865 C40.8958331,4.25107865 47.8573395,-0.505353479 49.9097175,2.94726172" id="Fill-241" fill="#FF7200"/>
                        <path d="M49.2358253,3.53614163 C49.2358253,3.53614163 51.2667124,5.15556139 51.7625374,6.73004838 C52.2583625,8.30438202 52.4809465,11.5458286 53.4250097,11.4354136 C53.4250097,11.4354136 55.4758526,6.50507785 53.1732595,3.71602604 C50.7294407,0.75843802 49.2358253,3.53614163 49.2358253,3.53614163" id="Fill-242" fill="#FF7200"/>
                        <path d="M16.0170821,80.734771 L18.9997077,81.6288256 C18.9997077,81.6288256 28.8394556,65.3196125 29.7343967,61.0747698 C30.0260585,59.6930489 30.7413975,56.9280737 31.5764712,53.83032 C33.3049511,47.4155162 35.5353963,39.5668511 35.5353963,39.5668511 L38.7743773,25.5522759 C38.7743773,25.5522759 33.9773083,26.0419357 31.1727499,27.2137147 C30.2425023,27.6009339 29.5348387,28.0632967 29.2876937,28.6055569 C27.2261053,33.1324179 25.1691222,44.5569949 23.7230937,52.7077677 C22.9171861,57.2485839 22.3016262,60.7741956 21.9823333,61.5225639 C21.0873921,63.6066467 18.3534466,75.0744695 16.0170821,80.734771" id="Fill-243" fill="#E5B562"/>
                        <path d="M49.6134505,3.7810482 C49.6134505,3.7810482 47.6746672,11.3772924 42.4063341,13.8101025 C42.4063341,13.8101025 47.6746672,9.14292248 48.1213702,4.12870204 C48.5696083,-0.885671756 49.6134505,3.7810482 49.6134505,3.7810482" id="Fill-244" fill="#FF7200"/>
                        <path d="M39.3807268,21.7420389 C39.4283137,21.3710752 39.8489207,21.1764688 40.1590033,21.3874841 C41.2228013,22.1125425 42.3464667,22.6330265 43.4348257,22.9875812 C45.6207541,23.7046652 47.6623867,23.7557321 48.7952625,23.4605254 C49.3831912,23.3090115 49.9158578,23.8294955 49.7884476,24.4214425 C49.6349414,25.1219642 49.5950298,25.8881215 49.9910758,26.2754941 C49.9913937,26.2758042 49.9917116,26.2761144 49.9920296,26.2764247 C51.7699543,26.6708532 56.0943411,27.7737677 56.9034603,29.3117528 C57.9288818,31.2579702 57.314857,50.0026006 59.3856557,51.9149267 C59.8231484,52.3167146 62.5202524,52.3289829 62.5202524,52.3289829 L62.5202524,52.3289829 L62.5239681,52.3568941 C62.5550654,52.5966642 62.7667395,54.3534767 62.5985406,56.549289 C62.3084139,60.3478711 60.8808061,65.4560976 55.4006346,66.2550727 C53.4629257,66.5389265 52.076442,64.7909442 51.0932644,61.8837711 C42.5476008,64.2096656 34.1492353,59.973687 34.1492353,59.973687 C34.1492353,59.973687 34.1369548,59.7283204 34.116999,59.4308133 C34.0985782,59.1854467 34.0740172,58.9078757 34.044851,58.7039147 C33.9819135,58.254587 31.9540965,53.4177973 31.9540965,53.4177973 C31.9540965,53.4177973 31.8773434,53.793515 31.743793,54.4345353 C31.4235473,55.9588226 30.7690468,58.9843417 30.0030429,62.017362 L29.8171751,62.7446661 C28.8469757,66.4952452 27.7327287,70.0736174 26.8991371,70.6318 C25.9934505,71.2360153 23.1029286,71.2467501 20.3874038,70.5045161 C17.5628896,69.7346783 14.9317932,68.1505299 14.9317932,65.5741803 C14.9317932,63.3621924 17.6263547,55.9217213 20.7015657,48.1779253 L21.0512046,47.300238 C21.16821,47.0074201 21.2856332,46.7144349 21.4033497,46.4215471 L21.757255,45.5434404 C22.9390439,42.6191563 24.1377353,39.7310759 25.2289896,37.1438556 L25.2289896,37.1438556 L25.2335948,37.1300537 C27.5300476,31.6819944 29.3490962,27.5705698 29.5271634,27.2693823 C30.0398741,26.4046183 37.036687,25.5464485 38.0621085,25.5524293 C38.8066136,25.5524293 39.2149401,23.0900218 39.3807268,21.7420389 Z" id="Combined-Shape" fill="#FFFFFF"/>
                        <path d="M23.63099,94.2314692 C23.63099,94.2314692 27.5423281,95.5963211 33.3034161,96.4965099 C40.4368495,97.609861 50.4101478,98.0101153 59.3150428,94.2314692 C59.3150428,94.2314692 60.0488025,79.2717725 57.9380922,71.4737142 C55.8273818,63.6741225 54.841872,59.9414826 54.841872,59.9414826 C54.841872,59.9414826 46.3882851,62.3353408 37.8011479,60.4797557 C36.5945891,60.2205872 35.3864953,59.8755403 34.1998923,59.4292798 C34.1998923,59.4292798 28.9023931,72.1239358 27.4471543,77.5634073 C25.9903804,83.0028788 23.63099,94.2314692 23.63099,94.2314692" id="Fill-246" fill="#00AEE6"/>
                        <path d="M31.9540965,53.4177973 C31.9540965,53.4177973 33.9819135,58.254587 34.044851,58.7039147 C34.0740172,58.9078757 34.0985782,59.1854467 34.116999,59.4308133 C35.0979036,60.231322 36.2814365,60.8370708 37.4895303,61.2035872 C40.920394,62.2417948 42.4124744,55.6721033 42.2067761,52.3949252 C42.0010777,49.1162136 37.1502816,39.7600773 35.5338612,39.5653175 C33.920511,39.3720913 31.9540965,53.4177973 31.9540965,53.4177973" id="Fill-248" fill-opacity="0.05" fill="#000000"/>
                        <path d="M31.743793,54.4345353 C31.8773434,53.793515 31.9540965,53.4177973 31.9540965,53.4177973 C31.8466422,53.7643777 31.7775644,54.1032904 31.743793,54.4345353" id="Fill-249" fill="#E58638"/>
                        <path d="M10.5553312,91.1843224 C12.1671464,90.5862412 14.802848,90.0495017 18.0448991,91.0002974 C23.5158603,92.6089823 24.051597,95.9674381 23.6908574,98.3858329 C23.3285827,100.801161 24.4015911,104.653417 24.2434797,107.393855 C24.0869034,110.134294 20.9185432,114.768488 16.8659794,114.408106 C12.8149506,114.04619 2.27009547,111.603985 2.27009547,111.603985 C2.27009547,111.603985 -0.119490387,108.499539 4.51639706,102.287162 C7.26569323,98.6005287 8.2665537,95.2436065 8.62575822,93.4324941 C8.8329916,92.3958201 9.56368115,91.5523723 10.5553312,91.1843224 Z" id="Fill-250" fill="#098273"/>
                        <path d="M11.1340496,90.2672646 L12.2178035,90.3638777 C12.2178035,90.3623441 12.3421435,89.6155095 12.8395036,89.1447122 C13.2232691,88.78433 13.7513305,88.653979 14.4098721,88.7597933 C15.0346424,88.8610071 15.4844156,89.1462458 15.7100697,89.6078418 C16.0308976,90.2549962 15.8543655,91.0892428 15.8512954,91.098444 L16.9074181,91.3438107 C16.9212336,91.2855361 17.226711,89.9283519 16.6725536,88.7889306 C16.2933933,88.0022239 15.6133608,87.5482956 14.6723677,87.3719383 C13.7006734,87.2155171 12.8809503,87.453216 12.231619,88.0758339 C11.3351428,88.9346171 11.141725,90.2135906 11.1340496,90.2672646" id="Fill-251" fill="#D37129"/>
                        <path d="M2.83147562,112.164809 C2.83147562,112.164809 11.6891201,114.053858 15.7432191,114.408106 C19.7957829,114.776156 21.4082201,109.530079 21.5571211,106.780439 C21.7167676,104.047668 20.6483644,100.192345 21.0044988,97.7708828 C21.0781817,97.3138875 21.1196284,96.8047517 21.0873921,96.2940824 C20.9830079,94.1379232 19.773379,91.6888575 15.3677508,90.3976156 C12.1164894,89.4406857 9.48846311,89.9850929 7.87204275,90.5831741 C6.88346277,90.9512241 6.14509792,91.7916048 5.9393996,92.8267452 C5.89181268,93.0368404 5.84883094,93.2944754 5.79203364,93.5475097 C5.32690984,95.4705707 4.24929626,98.4548423 1.83003844,101.684481 C-2.80738407,107.890723 2.83147562,112.164809 2.83147562,112.164809 Z" id="Fill-252" fill="#0AD6A0"/>
                        <path d="M7.87204275,90.5831741 C9.48846311,89.9866265 12.1164894,89.4406857 15.3677508,90.3976156 C19.773379,91.6888575 20.9830079,94.1394567 21.0873921,96.2940824 L20.9793367,96.4133076 L20.9793367,96.4133076 L20.7890915,96.6059733 L20.7890915,96.6059733 L20.5856133,96.7967279 L20.5856133,96.7967279 L20.4214286,96.9415836 L20.4214286,96.9415836 L20.2346772,97.0978876 L20.2346772,97.0978876 L20.0255815,97.2633249 L20.0255815,97.2633249 L19.7943641,97.4355809 C19.7136294,97.4938788 19.6292447,97.5529273 19.5412473,97.6123406 L19.2664534,97.7912893 C17.8862556,98.6577687 15.7542538,99.5198388 12.9834571,99.201335 L12.8563893,99.7598861 C12.7812893,100.086884 12.4720606,100.304121 12.1460294,100.27168 L12.0642973,100.258287 L11.984509,100.23511 C11.7033767,100.133926 11.52369,99.8533108 11.5497668,99.5563839 L11.563867,99.4669797 L11.6764018,98.9661784 C8.61961101,98.1737278 6.78324515,95.5907711 5.79203364,93.5475097 L5.83232902,93.357686 L5.83232902,93.357686 L5.90428506,92.9924156 C5.91589396,92.9347641 5.92750287,92.879269 5.9393996,92.8267452 C6.14509792,91.7916048 6.88346277,90.9512241 7.87204275,90.5831741 Z" id="Path" fill="#103D7C" opacity="0.288653706"/>
                        <path d="M16.2289207,80.2394371 C16.2289207,80.2394371 15.321699,82.3741268 14.3776358,82.9691409 C13.4335726,83.5656885 12.5355613,84.9949491 12.3406084,86.1466387 C11.9798688,88.2613924 13.6024295,89.5725703 14.7951727,89.5725703 C15.9879159,89.5725703 17.128467,87.9470164 17.8284553,84.0686901 C17.8668319,83.8539943 18.9997077,81.6288256 18.9997077,81.6288256 L16.2289207,80.2394371" id="Fill-259" fill="#E5B562"/>
                        <path d="M45.8126369,62.9196201 C52.0756901,62.9196201 54.6561294,60.7665279 54.8480122,60.6208415 L55.2532686,57.6733748 C55.1934012,57.7178475 46.7889363,62.7585983 33.7838905,57.9310098 L34.0586666,60.1638461 C39.0614339,62.0209648 42.5598403,62.9196201 45.8126369,62.9196201" id="Fill-260" fill="#9A6755"/>
                        <path d="M20.2968351,148.15692 C18.5530046,149.063243 19.6275481,151.611989 21.2025218,154.349361 C22.7790305,157.086732 21.7183026,156.635871 23.4007306,160.695155 C25.0816236,164.754439 27.0158018,165.571817 27.6774136,165.518143 C28.2638073,165.472137 27.8585509,163.343581 27.4701802,161.046336 C27.4195231,160.75803 27.3734713,160.466657 27.3258844,160.176818 C26.9144877,157.575932 28.0013117,155.267952 28.6705987,152.602657 C29.3061144,150.078448 33.5075793,145.368942 33.5075793,145.368942 L31.3830534,139.750046 C31.3830534,139.750046 27.6697383,144.096103 26.0134063,145.841273 C25.0401769,146.867212 23.4774837,147.281268 22.2540393,147.54197 C21.5893574,147.686123 20.912395,147.83641 20.2968351,148.15692" id="Fill-263" fill="#B78753"/>
                        <path d="M21.2025218,154.349361 C22.7790305,157.086732 21.7183026,156.635871 23.4007306,160.695155 C25.0816236,164.754439 27.0158018,165.571817 27.6774136,165.518143 C28.2638073,165.472137 27.8585509,163.343581 27.4701802,161.046336 L27.4210582,161.038668 C27.4210582,161.038668 24.9066265,159.040464 23.8090572,155.573127 C22.914116,152.748343 22.8557836,149.497236 22.2540393,147.54197 C21.5893574,147.686123 20.912395,147.83641 20.2968351,148.15692 C18.5530046,149.063243 19.6275481,151.611989 21.2025218,154.349361" id="Fill-264" fill="#09D6A0"/>
                        <polyline id="Fill-265" fill="#9A6755" points="76.804005 36.7328665 76.6581741 39.6511959 76.4632212 43.4911836 76.3035748 46.6717486 70.9984002 46.6717486 70.8295434 43.4911836 70.620775 39.6511959 70.4641986 36.7328665 76.804005 36.7328665"/>
                        <polyline id="Fill-266" fill="#FFFFFF" points="77.1708848 37.1944625 70.1403005 37.1944625 70.3398586 36.122517 77.0465448 36.122517 77.1708848 37.1944625"/>
                        <polyline id="Fill-267" fill="#FFFFFF" points="74.3433005 36.122517 75.9827468 35.7406652 76.2068658 36.122517 74.3433005 36.122517"/>
                        <polyline id="Fill-268" fill="#FFFFFF" points="76.6581741 39.6511959 76.4632212 43.4911836 70.8295434 43.4911836 70.620775 39.6511959 76.6581741 39.6511959"/>
                        <path d="M76.6581741,39.6511959 C76.6581741,39.6511959 75.221356,38.5654485 74.9941668,40.0330477 C74.8836423,40.7461444 76.4847121,43.0955299 76.4847121,43.0955299 C77.0342643,42.600196 77.4487311,40.0054439 76.6581741,39.6511959" id="Fill-269" fill="#E5B562"/>
                        <path d="M51.461879,16.1940556 L47.5321546,15.7033267 C48.1871087,17.0119372 48.8420627,17.6662425 49.4970168,17.6662425 C50.1519709,17.6662425 50.806925,17.1755135 51.461879,16.1940556 Z" id="Path-4" fill="#FFFFFF"/>
                    </g>
                    <g id="Group-10" transform="translate(66.828813, 0.000000)">
                        <g id="Group" fill="#FFFFFF" opacity="0.1">
                            <path d="M20.1226638,0 C28.9371284,1.57165959e-16 36.0826638,7.14553539 36.0826638,15.96 L36.0826638,16.0069707 C36.0826638,18.1332384 35.6668692,20.1623921 34.9121538,22.0175581 L43.2262715,27.7717707 L31.5352829,27.1637591 C28.6376161,30.1274517 24.5949613,31.9669707 20.1226638,31.9669707 L15.96,31.9669707 C7.14553539,31.9669707 2.85581743e-15,24.8214353 0,16.0069707 L0,15.96 C6.96896253e-16,7.14553539 7.14553539,3.39554772e-15 15.96,0 L20.1226638,0 Z" id="Combined-Shape"/>
                        </g>
                        <g id="Group" transform="translate(10.104843, 10.655657)">
                            <path d="M13.4911883,10.6215523 L1.67596794,10.6556569 C0.752417674,10.6582941 0.00282863787,9.92457286 0,9.01688514 L15.157264,8.97318475 C15.1600847,9.88101165 14.4133243,10.618908 13.4911883,10.6215523" id="Fill-149" fill="#FFCDA8"/>
                            <path d="M13.1954125,5.84526518 C12.3121366,5.84774965 11.565895,5.35615506 11.5644033,4.77169883 C11.562916,4.1872426 12.3061786,3.69124698 13.1894545,3.68874362 C14.0712409,3.68625915 14.818972,4.17785374 14.8204637,4.76230997 C14.821951,5.34676621 14.077199,5.84261512 13.1954125,5.84526518 Z M13.1864755,2.80413351 C11.7937892,2.80810779 10.6632556,3.69183379 10.6662287,4.77433944 C10.6692136,5.8566984 11.8042157,6.73382285 13.1983915,6.72987529 C14.5910779,6.72575431 15.7216115,5.84202832 15.7186383,4.75966936 C15.7156535,3.6773104 14.5791618,2.80018595 13.1864755,2.80413351 L13.1864755,2.80413351 Z" id="Fill-150" fill="#FFCDA8"/>
                            <path d="M13.4731236,1.11857982 C13.4873151,6.06598594 10.7348875,10.0846589 7.32284611,10.0948328 C3.91222935,10.1051143 1.13700737,6.10336483 1.1227603,1.15581156 C1.1213362,0.528022671 3.88373632,0.0104573865 7.29435307,0.000156115551 C10.7049698,-0.0101451554 13.4716439,0.490643774 13.4731236,1.11857982" id="Fill-151" fill="#FFCDA8"/>
                            <path d="M13.4731236,1.10328674 C13.4745477,1.72249258 10.7121354,2.23298177 7.30150359,2.24314221 C3.89087179,2.25330264 1.12561017,1.75936043 1.1227603,1.14000945 C1.12133619,0.520803613 3.8837485,0.0103144145 7.2943803,0.00015398116 C10.7050121,-0.0100064521 13.4716984,0.483935755 13.4731236,1.10328674" id="Fill-152" fill="#FF7200"/>
                        </g>
                    </g>
                    <g id="Group" transform="translate(84.792978, 16.263897)">
                        <path d="M28.2063454,69.5579019 L24.0897858,80.2087756 C24.0897858,80.2087756 21.4039835,105.625933 22.9679537,120.841676 C23.6220016,127.204383 37.7824389,161.269611 37.7824389,161.269611 L44.8154688,160.265281 L35.3951568,119.926652 L38.8616252,104.501552 L43.7670577,74.0085762 L28.2063454,69.5579019" id="Fill-124" fill="#3C58A3"/>
                        <path d="M47.5991658,70.1127721 L51.1311416,81.9729409 L56.5020135,117.767197 L74.6682193,151.251201 C74.6682193,151.251201 71.9365472,155.441277 69.004103,156.100094 L43.2204302,122.2574 L29.2469893,79.8910794 L29.7374886,70.4787815 L47.5991658,70.1127721" id="Fill-125" fill="#4565B9"/>
                        <path d="M30.8906822,62.1952566 C31.2397617,61.2714489 34.7405227,42.9664401 34.7405227,42.9664401 L26.0299472,43.8870269 L23.4889352,59.3843044 C20.4162437,57.9720937 17.8419651,56.7873945 17.8419651,56.7873945 C17.8419651,56.7873945 12.7442605,54.4822672 12.5226785,54.1301662 C12.3353889,53.8322345 12.7896906,53.6896373 11.393812,51.3287302 C10.990949,50.6470743 9.98870086,50.0882511 9.98870086,50.0882511 C9.98870086,50.0882511 8.75065546,49.4105481 8.50723769,49.6462581 C8.26367336,49.8821146 8.31086211,50.3046359 8.48584154,50.5123828 C8.66096752,50.7202761 9.18546615,50.9318296 9.36044558,51.1397229 C9.53557155,51.3476163 9.47314171,52.1928052 9.33758394,52.4700939 C9.20261238,52.7472362 5.62227537,50.6321411 5.62227537,50.6321411 C5.62227537,50.6321411 4.62500988,49.9783019 4.31095551,49.7357108 C4.04306406,49.5289887 3.289656,48.8486504 3.289656,48.8486504 C3.289656,48.8486504 1.96500018,47.8261666 1.69725528,48.1803173 C1.36927877,48.614258 5.60952562,52.2051031 5.47235582,52.4340786 C5.30572968,52.7131242 3.31383657,51.5975275 3.31383657,51.5975275 C3.31383657,51.5975275 2.49755901,50.8624342 2.04926582,50.6625931 C1.62383426,50.1292442 0.531018865,49.4825787 0.236015861,49.9359912 C0.181646207,50.0198805 1.34920156,51.2571387 1.34920156,51.2571387 C1.34920156,51.2571387 2.14481572,51.9333777 2.50400716,52.2788906 C3.1375382,52.8882231 4.2986454,53.4760342 4.75939525,53.8546343 C5.14262071,54.1695488 4.92103873,54.1897525 4.91898704,54.2450931 C4.917375,54.287843 4.34861859,53.9470151 3.56047842,53.4931634 C3.16347736,53.2646271 2.66682303,53.0915779 2.24710688,52.7552884 C1.85860566,52.4441804 1.26229804,52.091933 0.898270493,51.8887246 C-0.132701256,51.3133578 -0.316180521,52.046255 0.55651838,52.7350847 C0.88903791,52.9975867 1.25321201,53.2804387 1.62354117,53.5656333 C3.06323789,54.6749346 4.60595852,55.3803079 4.54367522,55.5614094 C4.46278021,55.7963874 1.72612542,54.3436229 1.72612542,54.3436229 C1.72612542,54.3436229 0.0261577883,53.9710253 1.3163746,54.9870674 C2.81366506,56.1659105 4.19283707,56.7573817 4.25541347,56.7799279 C4.67879334,56.9327734 6.00755252,57.9106041 7.56185051,58.216588 C9.11614851,58.5225719 11.6058683,58.9284031 11.6058683,58.9284031 C12.8264744,59.6200145 22.8345942,65.710411 28.8729965,69.251918 L33.2974553,63.8715797 C32.7927408,63.6461179 31.8203886,63.2025145 30.5989033,62.6447162 C30.7642105,62.4163263 30.8651827,62.2626024 30.8906822,62.1952566" id="Fill-126" fill="#FFCDA8"/>
                        <path d="M24.2744298,49.1317953 L34.2989707,50.1680411 C34.2989707,50.1680411 34.7586947,41.8465977 34.7586947,37.8770061 C34.7586947,33.0612007 34.1190087,27.0636242 33.5446834,27.1971444 C31.9326451,27.571938 29.9964406,28.2673559 28.703879,30.0656333 C24.2316452,36.2879396 24.2744298,49.1317953 24.2744298,49.1317953" id="Fill-127" fill="#1CC095"/>
                        <path d="M46.3237504,26.6283658 C46.3237504,26.6283658 51.6299942,27.3655087 53.0258728,28.3900423 C54.5998083,29.5439967 57.533718,34.1456134 57.533718,34.1456134 C57.533718,34.1456134 49.3325466,63.9389255 49.7248581,69.0996581 C50.1173161,74.2618548 51.2291829,81.9070592 51.2291829,81.9070592 C51.2291829,81.9070592 31.5419456,83.1485631 24.0856824,80.2087756 C24.0856824,80.2087756 26.4402842,68.512579 26.4402842,65.4410281 C26.4402842,62.3694771 27.7625952,31.673293 28.703879,30.0656333 C29.6451628,28.4579736 31.5419456,27.5432429 35.1392823,26.7591043 C38.736619,25.9749658 46.3237504,26.6283658 46.3237504,26.6283658" id="Fill-130" fill="#0AD6A0"/>
                        <path d="M44.8749676,18.3454265 L46.1883392,26.9363993 C46.1883392,26.9363993 41.6006248,34.2671285 38.7372052,33.3799217 C36.3345354,32.635605 37.6037957,26.4831333 37.6037957,26.4831333 C37.6037957,26.4831333 38.0619077,24.7829464 38.3550056,22.8905313 C38.5573897,21.5831457 38.681077,20.183965 38.5206059,19.1903226 C38.1278547,16.7578241 44.8749676,18.3454265 44.8749676,18.3454265" id="Fill-131" fill="#FFCDA8"/>
                        <path d="M38.5206059,19.1903226 C38.1278547,16.7578241 44.8749676,18.3454265 44.8749676,18.3454265 L44.9838535,19.0579736 C44.7863055,19.5345179 44.545086,19.9425452 44.2522812,20.2552636 C42.7450254,21.8648266 40.3893979,22.8315306 38.3526608,22.9047325 C38.5565104,21.5932476 38.6816632,20.1874787 38.5206059,19.1903226" id="Fill-132" fill-opacity="0.176009171" fill="#F47458"/>
                        <path d="M45.9818517,6.19157177 C46.1725119,6.122762 47.5103571,15.976028 44.9716899,18.6872793 C42.4328762,21.3983842 37.4864101,22.2857374 35.7121421,20.1504385 C33.7497053,17.7885066 33.8483328,7.19868325 37.7954818,4.40983798 C41.7427773,1.6208463 45.9818517,6.19157177 45.9818517,6.19157177" id="Fill-133" fill="#FFCDA8"/>
                        <path d="M40.4998958,0.0733585296 C43.550898,0.690743196 48.3194538,3.3172267 50.263865,6.5119032 C52.6545178,10.4400626 50.8890428,14.7922072 48.105932,16.9275061 C45.3229677,19.062805 45.3544758,21.5417135 45.3544758,21.5417135 L44.9217168,20.2535068 C44.5971109,19.2870955 44.4644841,18.2622692 44.5730768,17.2484231 C44.6382911,16.6402619 44.769599,15.9824698 45.0232752,15.4418007 C45.6927107,14.015828 43.5854836,13.0684493 42.9945983,11.8819932 C42.5397104,10.9684337 42.5175815,8.87852002 41.8008107,7.36851161 L40.9448183,6.21572839 C40.9448183,6.21572839 39.0159413,5.04786557 37.0378238,5.12092105 C35.8440361,5.16513499 36.5855738,-0.718685826 40.4998958,0.0733585296" id="Fill-134" fill="#00AEE6"/>
                        <path d="M43.1244406,13.6354711 C43.1043634,14.8375924 43.6549478,15.8217185 44.3544258,15.8335772 C45.0539039,15.8454359 45.6371687,14.8804887 45.6572459,13.6783674 C45.6774696,12.4762461 45.1268853,11.49212 44.4274072,11.4802613 C43.7279291,11.4684026 43.1445178,12.4332034 43.1244406,13.6354711" id="Fill-135" fill="#FFCDA8"/>
                        <path d="M58.7149024,94.2386482 C58.7149024,93.8492141 59.0050693,93.532982 59.3611832,93.532982 L70.4622649,93.532982 C70.8198443,93.532982 71.1100112,93.8492141 71.1100112,94.2386482 L71.1100112,113.818687 L73.0766979,113.818687 L73.0766979,94.2386482 C73.0766979,92.6648077 71.9043064,91.3852388 70.4622649,91.3852388 L59.3611832,91.3852388 C57.9206072,91.3852388 56.7467502,92.6648077 56.7467502,94.2386482 L56.7467502,113.818687 L58.7149024,113.818687 L58.7149024,94.2386482" id="Fill-137" fill="#9A6755"/>
                        <path d="M65.3858099,110.994559 C68.0617934,110.994559 70.3289054,112.178965 70.4212312,113.60201 L72.5667076,113.60201 C72.4875712,111.25955 69.3045284,109.375333 65.3858099,109.375333 C61.4685569,109.375333 58.285514,111.25955 58.2049121,113.60201 L60.351854,113.60201 C60.4441798,112.178965 62.7112918,110.994559 65.3858099,110.994559" id="Fill-141" fill="#9A6755"/>
                        <rect id="Rectangle" fill="#D8D8D8" x="47.7173127" y="113.286458" width="36.4897097" height="48.2308681" rx="3.36"/>
                        <path d="M78.3803038,168.242822 L50.6703918,168.242822 C48.9188389,168.242822 47.4989263,166.82417 47.4989263,165.074645 L47.4989263,117.673498 C47.4989263,115.923973 48.9189855,114.505321 50.6705383,114.505321 L78.3803038,114.505321 C80.1330291,114.505321 81.5516228,115.923973 81.5516228,117.673498 L81.5516228,165.074645 C81.5516228,166.82417 80.1330291,168.242822 78.3803038,168.242822" id="Fill-139" fill="#FAFAFA"/>
                        <rect id="Rectangle" fill="#000000" opacity="0.13385809" x="53.8924944" y="120.57717" width="4.4910412" height="39.2576833" rx="2.2455206"/>
                        <rect id="Rectangle-Copy-5" fill="#000000" opacity="0.13385809" x="62.3131966" y="120.57717" width="4.4910412" height="39.2576833" rx="2.2455206"/>
                        <rect id="Rectangle-Copy-6" fill="#000000" opacity="0.13385809" x="70.7338989" y="120.57717" width="4.4910412" height="39.2576833" rx="2.2455206"/>
                        <path d="M69.48918,93.6925621 L60.4661622,93.6925621 C59.8184159,93.6925621 59.2923052,93.1684366 59.2923052,92.519868 L59.2923052,92.1260419 C59.2923052,91.4789372 59.8184159,90.9533477 60.4661622,90.9533477 L69.48918,90.9533477 C70.1369263,90.9533477 70.663037,91.4789372 70.663037,92.1260419 L70.663037,92.519868 C70.663037,93.1684366 70.1369263,93.6925621 69.48918,93.6925621" id="Fill-142" fill="#FFFFFF"/>
                        <path d="M52.8016529,47.315071 C52.8016529,47.315071 59.6997112,59.3740561 60.0441012,62.5905468 C60.3884912,65.8055734 61.4275232,84.9830023 61.4275232,84.9830023 C61.4275232,84.9830023 60.0441012,93.2548149 60.7343467,93.9443766 C61.4231267,94.6339383 63.3780895,94.4040844 63.9525613,94.5182793 C64.3790187,94.6031935 65.7521822,94.4362932 66.4336347,94.3440589 C66.6900954,94.308922 66.9392286,94.2386482 67.1737069,94.1347015 L68.1218785,93.6954902 C68.1218785,93.6954902 66.1420024,85.8921696 66.197691,85.3241231 C66.2519141,84.7560765 67.8610214,63.3943035 66.9421595,59.1442022 C66.0218322,54.8951258 59.8140194,40.6538462 59.8140194,40.6538462 L52.8016529,47.315071" id="Fill-143" fill="#FFCDA8"/>
                        <path d="M64.5226367,48.2725516 L55.2534166,53.0958236 C55.2534166,53.0958236 52.2399309,46.0693214 50.2719252,41.9170179 C48.279739,37.7137659 51.0487811,27.8643063 53.1694908,28.4342562 C57.9118142,29.7092866 64.5226367,48.2725516 64.5226367,48.2725516" id="Fill-144" fill="#3DE9BB"/>
                        <path d="M39.6767304,78.1591229 C39.769789,79.719787 39.8539081,81.2833792 39.9293808,82.8455074 C40.0691885,85.1352622 37.8568858,87.1775947 35.0273189,87.1819868 C31.3493804,87.1922351 27.6913724,86.9345644 24.0817256,86.4192232 C21.3031578,86.023933 19.5496998,83.726858 20.093836,81.5000568 C20.4464328,79.9745296 20.7902366,78.4490024 21.1252474,76.9205471 C21.6453496,74.6834976 23.8406526,73.260453 26.0948683,73.572293 C29.0890096,73.9924718 32.1265293,74.1959731 35.1836867,74.1784046 C37.4837722,74.1696204 39.5131818,75.867904 39.6767304,78.1591229" id="Fill-145" fill="#184655"/>
                        <path d="M50.6885639,75.9513542 C50.6885639,75.9513542 42.8928933,78.1313062 39.0181395,78.7696266 L39.2949704,82.7254563 L51.2291829,81.9070592 L50.6885639,75.9513542" id="Fill-146" fill="#1D3473"/>
                        <path d="M38.2928688,78.1591229 C38.3857809,79.719787 38.4700465,81.2833792 38.5455192,82.8455074 C38.6853269,85.1352622 36.4730242,87.1775947 33.6434574,87.1819868 C29.9655188,87.1922351 26.3075108,86.9345644 22.697864,86.4192232 C19.9192963,86.023933 18.1658383,83.726858 18.7099745,81.5000568 C19.0625712,79.9745296 19.4062284,78.4490024 19.7415324,76.9205471 C20.261488,74.6834976 22.456791,73.260453 24.7110067,73.572293 C27.705148,73.9924718 30.7428143,74.1959731 33.7998251,74.1784046 C36.0999106,74.1696204 38.1293202,75.867904 38.2928688,78.1591229" id="Fill-147" fill="#5A81E7"/>
                        <path d="M29.7584451,79.3933066 C25.2384364,79.3933066 21.4552756,78.1371623 21.2292972,78.0595684 L21.4958697,77.2748442 C21.5732475,77.3011969 29.295497,79.8617987 35.6882546,77.655494 L35.9595167,78.4387541 C33.9117885,79.1458843 31.7623552,79.3933066 29.7584451,79.3933066" id="Fill-148" fill="#1D3473"/>
                        <path d="M33.4233409,79.211766 L32.8271798,79.3098565 C32.6505883,79.3376732 32.4841087,79.2190862 32.4549455,79.0419376 L32.3982311,78.6993528 C32.3690678,78.5236683 32.4885052,78.356768 32.6649501,78.3274872 L33.2612577,78.2293967 C33.4377027,78.200116 33.6043288,78.3201671 33.633492,78.4958516 L33.6902065,78.8384364 C33.7192232,79.0155849 33.5999323,79.1824852 33.4233409,79.211766" id="Fill-149" fill="#355389"/>
                        <path d="M33.1210104,79.0653622 L33.6566468,80.1355737 L33.0748475,80.2160958 L33.1210104,79.0653622 Z M33.2637491,78.7330257 L32.8542914,78.8135477 L32.7851203,80.535256 L34.076656,80.3566434 L33.2637491,78.7330257 L33.2637491,78.7330257 Z" id="Fill-150" fill="#13375B"/>
                        <polygon id="Fill-151" fill="#FFBA3A" points="71.0953563 105.21161 81.9839421 105.21161 81.9839421 100.883915 71.0953563 100.883915"/>
                    </g>
                </g>
            </g>
        </g>
    </g>
</svg>