<?xml version="1.0" encoding="UTF-8"?>
<svg width="156px" height="86px" viewBox="0 0 156 86" version="1.1" xmlns="http://www.w3.org/2000/svg" xmlns:xlink="http://www.w3.org/1999/xlink">
    <title>illu-basic-large</title>
    <defs>
        <rect id="path-1" x="0" y="0" width="156" height="86"></rect>
    </defs>
    <g id="Assets" stroke="none" stroke-width="1" fill="none" fill-rule="evenodd">
        <g id="Artboard" transform="translate(-128.000000, -115.000000)">
            <g id="illu-basic-large" transform="translate(128.000000, 115.000000)">
                <mask id="mask-2" fill="white">
                    <use xlink:href="#path-1"></use>
                </mask>
                <use id="Rectangle-Copy" fill="#FFE3CC" xlink:href="#path-1"></use>
                <g id="Group-4" mask="url(#mask-2)">
                    <g transform="translate(44.000000, -23.418584)">
                        <g id="Group-3" stroke-width="1" fill="none" fill-rule="evenodd" transform="translate(25.939708, 50.157530)" stroke-dasharray="1,5" stroke-linecap="round" stroke-linejoin="round">
                            <path d="M10.8011274,1.13686838e-13 C6.60289876,1.39768381 3.85595376,3.74211407 2.56029242,7.03329078 C1.26463108,10.3244675 0.411200275,16.5657221 0,25.7570545" id="Path-23" stroke="#00AEE6" stroke-width="2"></path>
                            <path d="M13.0081088,2.96101478 C9.00522587,4.40040621 6.35595376,6.76569029 5.06029242,10.056867 C3.76463108,13.3480437 3.43129775,19.4546726 4.06029242,28.3767535" id="Path-23-Copy" stroke="#00AEE6" stroke-width="2"></path>
                            <path d="M13.0081088,6.78247753 C11.2183841,7.28326933 9.67569115,9.17925359 8.38002981,12.4704303 C7.08436847,15.761607 6.64445601,18.638419 7.06029242,21.1008662" id="Path-23-Copy-2" stroke="#00AEE6" stroke-width="2"></path>
                        </g>
                        <g id="Group" stroke-width="1" fill="none" fill-rule="evenodd" transform="translate(73.000000, 37.418584) rotate(-30.000000) translate(-73.000000, -37.418584) translate(38.000000, 14.418584)">
                            <path d="M33.7612256,17.4482759 L33.7612256,7.75478927 L33.7714244,7.36826792 C34.015345,2.77999189 38.5033568,-1.13686838e-13 42.3254672,-1.13686838e-13 C46.1475775,-1.13686838e-13 50.6355894,2.77999189 50.87951,7.36826792 L50.8897088,7.75478927 L50.8897088,17.4482759 L33.7612256,17.4482759 Z" id="Path" stroke="#5B2F0B" stroke-width="2.564"></path>
                            <path d="M50.8897088,17.4482759 L61.5065372,17.4482759 L61.9298762,17.4583216 C66.9552032,17.6985822 70,22.218273 70,27.7586207 C70,33.2989684 66.9552032,37.8186591 61.9298762,38.0589197 L61.5065372,38.0689655 L50.8897088,38.0689655 L50.8897088,17.4482759 Z" id="Path" stroke="#5B2F0B" stroke-width="2.564"></path>
                            <path d="M2.27373675e-13,25.6237527 L1.00731487,11.1034483 L5.89581727,16.5193157 L28.4205996,23.4652206 L26.8473493,34.7281897 L5.89581727,22.3201209 L2.27373675e-13,25.6237527 Z" id="Combined-Shape" fill="#FFBA3A"></path>
                            <polygon id="Rectangle" fill="#FF7200" points="27.5326862 11.1034483 57.1182481 11.1034483 60.2325178 46 24.4184165 46"></polygon>
                            <polygon id="Rectangle-Copy-3" fill="#5B2F0B" points="24.9718758 39.6493741 59.661681 39.6493741 60.2325178 46 24.4184165 46"></polygon>
                            <polygon id="Path-19" fill="#5B2F0B" opacity="0.402391706" points="57.1182481 11.1034483 49.3592771 11.1034483 49.3592771 39.6493741 59.661681 39.6493741"></polygon>
                            <polygon id="Path-20" fill="#3F2107" points="49.3592771 39.6493741 49.3592771 46 60.2325178 46 59.661681 39.6493741"></polygon>
                            <polygon id="Path-21" fill="#E8A72F" points="5.89581727 22.3201209 5.89581727 21.5202728 25.6756056 31.8577862 25.494364 33.9316814"></polygon>
                            <polygon id="Path-22" fill="#E8A72F" points="2.27373675e-13 25.6237527 0.145388386 23.5720128 5.89581727 21.5202728 5.89581727 22.3201209"></polygon>
                        </g>
                        <path d="M27,82.38317 C27.0875,81.7401129 27.5875,81.4185843 28.5,81.4185843 C29.4125,81.4185843 29.9125,81.7401129 30,82.38317 L30,101.876546 L27,101.876546 L27,82.38317 Z" id="Path" fill="#0AD6A0" fill-rule="nonzero"></path>
                        <path d="M9,126.418584 L9,112.418584 L9.00345018,112.152552 C9.20096934,104.543334 17.8542353,98.4185843 28.5,98.4185843 C39.2695526,98.4185843 48,104.686598 48,112.418584 L48,112.418584 L48,126.418584 L9,126.418584 Z" id="Combined-Shape" fill="#823A00" fill-rule="evenodd"></path>
                        <path d="M0,124.418584 L0,113.418584 L0.0161334736,113.418845 C0.376347931,107.851906 6.723215,103.418584 14.5,103.418584 C22.276785,103.418584 28.6236521,107.851906 28.9838665,113.418845 L29,113.418584 L29,124.418584 L0,124.418584 Z" id="Combined-Shape-Copy" fill="#823A00" fill-rule="evenodd"></path>
                        <path d="M27,124.418584 L27,113.418584 L27.0161335,113.418845 C27.3763479,107.851906 33.723215,103.418584 41.5,103.418584 C49.276785,103.418584 55.6236521,107.851906 55.9838665,113.418845 L56,113.418584 L56,124.418584 L27,124.418584 Z" id="Combined-Shape-Copy-2" fill="#823A00" fill-rule="evenodd"></path>
                        <path d="M28,84.4185843 C28,81.1050843 30.8144286,78.4185843 34.2857143,78.4185843 L39,78.4185843 C39,81.7320843 36.1855714,84.4185843 32.7142857,84.4185843 L28,84.4185843 Z" id="Path" fill="#0AD6A0" fill-rule="nonzero"></path>
                        <path d="M29,83.4185843 C29,81.2095843 26.6972857,79.4185843 23.8571429,79.4185843 L20,79.4185843 C20,81.6275843 22.3027143,83.4185843 25.1428571,83.4185843 L29,83.4185843 Z" id="Path" fill="#0AD6A0" fill-rule="nonzero"></path>
                    </g>
                </g>
            </g>
        </g>
    </g>
</svg>