<?xml version="1.0" encoding="UTF-8"?>
<svg width="156px" height="86px" viewBox="0 0 156 86" version="1.1" xmlns="http://www.w3.org/2000/svg" xmlns:xlink="http://www.w3.org/1999/xlink">
    <title>illu-avanzado-large</title>
    <defs>
        <rect id="path-1" x="0" y="0" width="156" height="86"></rect>
    </defs>
    <g id="Assets" stroke="none" stroke-width="1" fill="none" fill-rule="evenodd">
        <g id="Artboard" transform="translate(-557.000000, -115.000000)">
            <g id="illu-avanzado-large" transform="translate(557.000000, 115.000000)">
                <mask id="mask-2" fill="white">
                    <use xlink:href="#path-1"></use>
                </mask>
                <g id="Rectangle-Copy">
                    <use fill="#FFFFFF" xlink:href="#path-1"></use>
                    <use fill-opacity="0.79" fill="#E3D7EC" xlink:href="#path-1"></use>
                </g>
                <g id="botanic" mask="url(#mask-2)">
                    <g transform="translate(40.000000, 8.000000)">
                        <path d="M25.6153846,87 L48.3846154,87 C49.8261538,87 51.0753846,86.0235 51.3876923,84.651 L57,60 L17,60 L22.6184615,84.651 C22.9307692,86.0205 24.1753846,86.997 25.6153846,87 L25.6153846,87 Z" id="Path" fill="#FF7200" fill-rule="nonzero"></path>
                        <path d="M17.0625,54 L56.9375,54 C58.6295312,54 60,55.3425 60,57 C60,58.6575 58.6295312,60 56.9375,60 L17.0625,60 C15.3704688,60 14,58.6575 14,57 C14,55.3425 15.3704688,54 17.0625,54 Z" id="Path" fill="#823A00" fill-rule="nonzero"></path>
                        <path d="M36,5.96458571 C36.0875,5.32152857 36.5875,5 37.5,5 C38.4125,5 38.9125,5.32152857 39,5.96458571 L39,54 L36,54 L36,5.96458571 Z" id="Path" fill="#0AD6A0" fill-rule="nonzero"></path>
                        <path d="M23.8489324,11.1203611 C23.9364324,10.477304 24.4364324,10.1557754 25.3489324,10.1557754 C26.2614324,10.1557754 26.7614324,10.477304 26.8489324,11.1203611 C27.5018473,16.8080231 27.8388904,22.248164 27.8600617,27.4407838 C27.881233,32.6334036 27.5877782,37.8840415 26.9796973,43.1926975 L23.986056,45.3677052 C24.5920837,39.4479135 24.8836808,33.6366437 24.8608475,27.9338959 C24.8380141,22.2311482 24.5007091,16.6266366 23.8489324,11.1203611 Z" id="Path-Copy" fill="#0AD6A0" fill-rule="nonzero" transform="translate(25.855031, 27.761740) rotate(-54.000000) translate(-25.855031, -27.761740) "></path>
                        <path d="M45.6904781,30.8321827 C45.7779781,30.1891255 46.2779781,29.867597 47.1904781,29.867597 C48.1029781,29.867597 48.6029781,30.1891255 48.6904781,30.8321827 C49.2915349,36.8581637 49.5741367,41.6895099 49.5382834,45.326221 C49.5024301,48.9629322 49.1391643,52.3135879 48.4484861,55.3781881 L45.4548448,57.5531959 C46.1418951,54.5346127 46.5065257,50.631947 46.5487365,45.8451988 C46.5909474,41.0584506 46.3048613,36.0541118 45.6904781,30.8321827 Z" id="Path-Copy-2" fill="#0AD6A0" fill-rule="nonzero" transform="translate(47.498078, 43.710396) scale(-1, 1) rotate(-54.000000) translate(-47.498078, -43.710396) "></path>
                        <path d="M36,76.5 C36,75.672 35.2676768,75 34.3653499,75 L20.4439803,75 L21.1697649,78 L34.3653499,78 C35.2676768,78 36,77.328 36,76.5 Z" id="Path" fill="#B55203" fill-rule="nonzero" opacity="0.496729651"></path>
                        <path d="M30.5824274,68 C29.7089275,68 29,68.672 29,69.5 C29,70.328 29.7089275,71 30.5824274,71 L54.4434633,71 L55.1176592,68 L30.5824274,68 Z" id="Path" fill="#B55203" fill-rule="nonzero" opacity="0.496729651"></path>
                        <path d="M39.6098179,39.9509831 C39.6098179,36.6374831 42.4242464,33.9509831 45.8955321,33.9509831 L50.6098179,33.9509831 C50.6098179,37.2644831 47.7953893,39.9509831 44.3241036,39.9509831 L39.6098179,39.9509831 Z" id="Path" fill="#0AD6A0" fill-rule="nonzero" transform="translate(45.109818, 36.950983) rotate(-68.000000) translate(-45.109818, -36.950983) "></path>
                        <path d="M46.7004644,50.4183662 L52.4782422,50.4183662 C56.4663533,50.4183662 59.7004644,47.2837662 59.7004644,43.4183662 L53.9226867,43.4183662 C49.9345756,43.4183662 46.7004644,46.5529662 46.7004644,50.4183662 Z" id="Path" fill="#0AD6A0" fill-rule="nonzero" transform="translate(53.200464, 46.918366) rotate(44.000000) translate(-53.200464, -46.918366) "></path>
                        <path d="M22.9090909,50 L28.3636364,50 C32.5810909,50 36,46.4182857 36,42 L30.5454545,42 C26.328,42 22.9090909,45.5817143 22.9090909,50 Z" id="Path" fill="#0AD6A0" fill-rule="nonzero" transform="translate(29.454545, 46.000000) scale(-1, 1) translate(-29.454545, -46.000000) "></path>
                        <path d="M38.9090909,27 L43,27 C46.1630909,27 48.7272727,24.3137143 48.7272727,21 L44.6363636,21 C41.4732727,21 38.9090909,23.6862857 38.9090909,27 Z" id="Path-Copy-5" fill="#0AD6A0" fill-rule="nonzero"></path>
                        <path d="M38,7 C38,4.791 35.6972857,3 32.8571429,3 L29,3 C29,5.209 31.3027143,7 34.1428571,7 L38,7 Z" id="Path" fill="#0AD6A0" fill-rule="nonzero"></path>
                        <path d="M51.1659966,6 C51.1659966,2.6865 47.5839966,0 43.1659966,0 L37.1659966,0 C37.1659966,3.3135 40.7479966,6 45.1659966,6 L51.1659966,6 Z" id="Path-Copy-4" fill="#0AD6A0" fill-rule="nonzero" transform="translate(44.165997, 3.000000) scale(-1, 1) translate(-44.165997, -3.000000) "></path>
                        <path d="M36,22 L30.2222222,22 C26.2341111,22 23,18.8654 23,15 L28.7777778,15 C32.7658889,15 36,18.1346 36,22 Z" id="Path" fill="#0AD6A0" fill-rule="nonzero"></path>
                        <path d="M51,17 L45.2222222,17 C41.2341111,17 38,13.8654 38,10 L43.7777778,10 C47.7658889,10 51,13.1346 51,17 Z" id="Path-Copy-3" fill="#0AD6A0" fill-rule="nonzero" transform="translate(44.500000, 13.500000) scale(-1, 1) translate(-44.500000, -13.500000) "></path>
                        <path d="M29.0747072,38.3371111 L22.9383436,38.3371111 C18.1937072,38.3371111 14.3474345,34.3076825 14.3474345,29.3371111 L20.4837981,29.3371111 C25.2284345,29.3371111 29.0747072,33.3665396 29.0747072,38.3371111 Z" id="Path" fill="#0AD6A0" fill-rule="nonzero" transform="translate(21.711071, 33.837111) rotate(-47.000000) translate(-21.711071, -33.837111) "></path>
                        <g id="Group-2" stroke-width="1" fill="none" fill-rule="evenodd" transform="translate(0.000000, 5.000000)">
                            <path d="M11.9544425,19.9007605 C8.95282018,24.1389484 6.32381559,24.9499117 4.06742879,22.3336505 C1.81104198,19.7173893 2.17822619,17.2374419 5.16898141,14.8938083 C0.702245191,13.1679665 -0.869568769,10.8791704 0.453539529,8.02741991 C1.77664783,5.17566944 4.21240029,4.76399265 7.76079693,6.79238953 C8.23696051,1.67277836 9.89453065,-0.552738791 12.7335073,0.11583807 C15.572484,0.78441493 16.7106776,3.00993209 16.1480881,6.79238953 C20.9141955,5.60811198 23.5104441,6.52146287 23.9368341,9.5324422 C24.363224,12.5434215 22.6309139,14.3305436 18.7399037,14.8938083 C21.2929936,18.8248817 21.2399934,21.6148808 18.580903,23.2638055 C15.9218126,24.9127301 13.7129924,23.7917152 11.9544425,19.9007605 Z" id="Star" fill="#FFFFFF"></path>
                            <ellipse id="Oval" fill="#FFBA3A" cx="11.8317732" cy="12.3050456" rx="4.12990977" ry="4.19443624"></ellipse>
                        </g>
                        <g id="Group-2-Copy" stroke-width="1" fill="none" fill-rule="evenodd" transform="translate(51.000000, 26.000000)">
                            <path d="M8.9658319,14.9255704 C6.71461513,18.1042113 4.7428617,18.7124338 3.05057159,16.7502379 C1.35828149,14.788042 1.63366964,12.9280814 3.87673606,11.1703562 C0.526683893,9.87597489 -0.652176577,8.15937779 0.340154646,6.02056494 C1.33248587,3.88175208 3.15930022,3.57299449 5.8205977,5.09429215 C6.17772039,1.25458377 7.42089798,-0.414554093 9.5501305,0.0868785522 C11.679363,0.588311198 12.5330082,2.25744906 12.1110661,5.09429215 C15.6856466,4.20608399 17.6328331,4.89109716 17.9526256,7.14933165 C18.272418,9.40756615 16.9731854,10.7479077 14.0549278,11.1703562 C15.9697452,14.1186613 15.929995,16.2111606 13.9356772,17.4478541 C11.9413594,18.6845476 10.2847443,17.8437864 8.9658319,14.9255704 Z" id="Star" fill="#FFFFFF"></path>
                            <ellipse id="Oval" fill="#FFBA3A" cx="8.87382988" cy="9.22878421" rx="3.09743233" ry="3.14582718"></ellipse>
                        </g>
                        <g id="Group-2-Copy-2" stroke-width="1" fill="none" fill-rule="evenodd" transform="translate(29.000000, 2.000000)">
                            <path d="M6.47532304,10.7795786 C4.84944426,13.0752637 3.42540011,13.5145355 2.20319059,12.097394 C0.980981073,10.6802525 1.17987252,9.3369477 2.79986493,8.0674795 C0.380382812,7.13264853 -0.471016417,5.89288396 0.245667245,4.34818579 C0.962350906,2.80348762 2.28171683,2.58049602 4.203765,3.679211 C4.46168695,0.90608828 5.35953743,-0.299400178 6.89731647,0.062745621 C8.43509551,0.42489142 9.05161704,1.63037988 8.74688108,3.679211 C11.3285225,3.03772732 12.7348239,3.53245906 12.9657851,5.16340619 C13.1967464,6.79435333 12.2584117,7.76237777 10.1507812,8.0674795 C11.5337049,10.1968109 11.5049964,11.7080604 10.0646558,12.601228 C8.62431515,13.4943955 7.42787091,12.887179 6.47532304,10.7795786 Z" id="Star" fill="#FFFFFF"></path>
                            <ellipse id="Oval" fill="#FFBA3A" cx="6.40887714" cy="6.66523304" rx="2.23703446" ry="2.2719863"></ellipse>
                        </g>
                    </g>
                </g>
            </g>
        </g>
    </g>
</svg>